<svg width="339" height="46" viewBox="0 0 339 46" fill="none" xmlns="http://www.w3.org/2000/svg">
<line x1="1" y1="18.0273" x2="1" y2="29.2192" stroke="white" stroke-width="2"/>
<line x1="7.21771" y1="11.8086" x2="7.21771" y2="34.1924" stroke="white" stroke-width="2"/>
<line x1="15.9225" y1="11.8086" x2="15.9225" y2="34.1924" stroke="white" stroke-width="2"/>
<line x1="22.1402" y1="14.2969" x2="22.1402" y2="31.7065" stroke="white" stroke-width="2"/>
<line x1="29.6015" y1="0.617188" x2="29.6015" y2="45.3847" stroke="white" stroke-width="2"/>
<line x1="73.1255" y1="4.34766" x2="73.1255" y2="41.6539" stroke="white" stroke-width="2"/>
<line x1="80.5867" y1="14.2969" x2="80.5867" y2="31.7065" stroke="white" stroke-width="2"/>
<line x1="86.8044" y1="14.2969" x2="86.8044" y2="29.2194" stroke="white" stroke-width="2"/>
<line x1="94.2657" y1="18.0273" x2="94.2657" y2="29.2192" stroke="white" stroke-width="2"/>
<line x1="101.727" y1="9.32031" x2="101.727" y2="39.1653" stroke="white" stroke-width="2"/>
<line x1="109.188" y1="16.7852" x2="109.188" y2="31.7077" stroke="white" stroke-width="2"/>
<line x1="115.406" y1="18.0273" x2="115.406" y2="29.2192" stroke="white" stroke-width="2"/>
<line x1="122.867" y1="14.2969" x2="122.867" y2="32.95" stroke="white" stroke-width="2"/>
<line x1="129.085" y1="11.8086" x2="129.085" y2="34.1924" stroke="white" stroke-width="2"/>
<line x1="136.546" y1="14.2969" x2="136.546" y2="31.7065" stroke="white" stroke-width="2"/>
<line x1="144.007" y1="4.34766" x2="144.007" y2="42.8975" stroke="white" stroke-width="2"/>
<line x1="151.469" y1="16.7852" x2="151.469" y2="30.4641" stroke="white" stroke-width="2"/>
<line x1="158.93" y1="8.07813" x2="158.93" y2="39.1667" stroke="white" stroke-width="2"/>
<line x1="165.148" y1="5.58984" x2="165.148" y2="41.6526" stroke="white" stroke-width="2"/>
<line x1="172.609" y1="10.5664" x2="172.609" y2="35.4373" stroke="white" stroke-width="2"/>
<line x1="180.07" y1="15.5391" x2="180.07" y2="31.7051" stroke="white" stroke-width="2"/>
<line x1="187.531" y1="5.58984" x2="187.531" y2="40.409" stroke="white" stroke-width="2"/>
<line x1="194.993" y1="13.0508" x2="194.993" y2="32.9475" stroke="white" stroke-width="2"/>
<line x1="202.454" y1="15.5391" x2="202.454" y2="30.4616" stroke="white" stroke-width="2"/>
<line x1="208.672" y1="18.0273" x2="208.672" y2="30.4628" stroke="white" stroke-width="2"/>
<line x1="216.133" y1="10.5664" x2="216.133" y2="37.9243" stroke="white" stroke-width="2"/>
<line x1="223.594" y1="16.7852" x2="223.594" y2="31.7077" stroke="white" stroke-width="2"/>
<line x1="229.812" y1="18.0273" x2="229.812" y2="29.2192" stroke="white" stroke-width="2"/>
<line x1="237.273" y1="13.0508" x2="237.273" y2="32.9475" stroke="white" stroke-width="2"/>
<line x1="244.734" y1="13.0508" x2="244.734" y2="34.191" stroke="white" stroke-width="2"/>
<line x1="250.952" y1="14.2969" x2="250.952" y2="32.95" stroke="white" stroke-width="2"/>
<line x1="258.413" y1="3.10547" x2="258.413" y2="42.8988" stroke="white" stroke-width="2"/>
<line x1="265.875" y1="16.7852" x2="265.875" y2="31.7077" stroke="white" stroke-width="2"/>
<line x1="273.336" y1="9.32031" x2="273.336" y2="39.1653" stroke="white" stroke-width="2"/>
<line x1="279.553" y1="5.58984" x2="279.553" y2="40.409" stroke="white" stroke-width="2"/>
<line x1="287.015" y1="10.5664" x2="287.015" y2="35.4373" stroke="white" stroke-width="2"/>
<line x1="294.476" y1="15.5391" x2="294.476" y2="32.9487" stroke="white" stroke-width="2"/>
<line x1="301.937" y1="5.58984" x2="301.937" y2="40.409" stroke="white" stroke-width="2"/>
<line x1="309.399" y1="13.0508" x2="309.399" y2="32.9475" stroke="white" stroke-width="2"/>
<line x1="315.616" y1="15.5391" x2="315.616" y2="27.9745" stroke="white" stroke-width="2"/>
<line x1="323.078" y1="19.2695" x2="323.078" y2="27.9743" stroke="white" stroke-width="2"/>
<line x1="330.539" y1="10.5664" x2="330.539" y2="37.9243" stroke="white" stroke-width="2"/>
<line x1="338" y1="16.7852" x2="338" y2="30.4641" stroke="white" stroke-width="2"/>
<line x1="37.0627" y1="16.7852" x2="37.0627" y2="29.2206" stroke="white" stroke-width="2"/>
<line x1="65.6642" y1="14.2969" x2="65.6642" y2="31.7065" stroke="white" stroke-width="2"/>
<line x1="44.524" y1="6.83594" x2="44.524" y2="39.168" stroke="white" stroke-width="2"/>
<line x1="51.9852" y1="4.34766" x2="51.9852" y2="41.6539" stroke="white" stroke-width="2"/>
<line x1="59.4465" y1="11.8086" x2="59.4465" y2="34.1924" stroke="white" stroke-width="2"/>
</svg>
